P3
4 4
255
0 191 51
63 191 51
127 191 51
191 191 51
0 127 51
63 127 51
127 127 51
191 127 51
0 63 51
63 63 51
127 63 51
191 63 51
0 0 51
63 0 51
127 0 51
191 0 51
